<svg id="Edited_Version" data-name="Edited Version" xmlns="http://www.w3.org/2000/svg" xmlns:xlink="http://www.w3.org/1999/xlink" width="2048" height="2048" viewBox="0 0 2048 2048">
  <title>1panel-app-workshop</title>
<metadata><?xpacket begin="﻿" id="W5M0MpCehiHzreSzNTczkc9d"?>
<x:xmpmeta xmlns:x="adobe:ns:meta/" x:xmptk="Adobe XMP Core 5.6-c148 79.164036, 2019/08/13-01:06:57">
   <rdf:RDF xmlns:rdf="http://www.w3.org/1999/02/22-rdf-syntax-ns#">
      <rdf:Description rdf:about="" xmlns:dc="http://purl.org/dc/elements/1.1/" xmlns:xmp="http://ns.adobe.com/xap/1.0/" xmlns:xmpRights="http://ns.adobe.com/xap/1.0/rights/">
         <dc:creator>
            <rdf:Seq>
               <rdf:li>pooneyy</rdf:li>
            </rdf:Seq>
         </dc:creator>
         <dc:title>
            <rdf:Alt>
               <rdf:li xml:lang="x-default">1panel-app-workshop</rdf:li>
            </rdf:Alt>
         </dc:title>
         <xmp:CreatorTool>Adobe Photoshop 21.0 (Windows)</xmp:CreatorTool>
         <xmpRights:Marked>True</xmpRights:Marked>
         <xmpRights:WebStatement>https://github.com/pooneyy/1panel-app-workshop</xmpRights:WebStatement>
      </rdf:Description>
   </rdf:RDF>
</x:xmpmeta>
<?xpacket end="w"?></metadata>
<defs><linearGradient id="P" gradientUnits="userSpaceOnUse"/><linearGradient id="g1" x2="1" href="#P" gradientTransform="matrix(-2048,-2048,2048,-2048,2048,2048)"><stop stop-color="#43b66c"/><stop offset=".01" stop-color="#43b66c"/><stop offset="1" stop-color="#67db9c"/></linearGradient><linearGradient id="g2" x2="1" href="#P" gradientTransform="matrix(1611.474,-1611.474,1609.363,1609.363,218.475,1830.059)"><stop stop-color="#0a8a58"/><stop offset="1" stop-color="#19bb7f"/></linearGradient></defs><style>.a{fill:url(#g1)}.b{fill:#fff}.c{fill:url(#g2)}</style><path fill-rule="evenodd" class="a" d="m217 0h1614c119.8 0 217 97.2 217 217v1614c0 119.8-97.2 217-217 217h-1614c-119.8 0-217-97.2-217-217v-1614c0-119.8 97.2-217 217-217z"/><path fill-rule="evenodd" class="b" d="m0 1024v807c0 119.8 97.2 217 217 217h807v-1024zm1024-1024v1024h1024v-807c0-119.8-97.2-217-217-217z"/><path class="c" d="m359.3 587c-0.3-11.5 2.7-44.3 14.5-58.1 40.9-47.9 146.4-173.3 199.1-162.3 58.3 4.6 90 37.3 112.1 55 24-20.7 110.7-50.9 145.3-62-0.3 4.8 9.1-115.4 76-132.3 39.1-12.6 147.8-9.8 228.6-2.7 68.6 25 72.7 80.9 83.6 135.7 33.3 9.8 121 43.1 145.7 60.5 69.7-52 97.5-58.4 130.6-53.9 67.2 26.6 191.2 155.5 193.8 193.7 11.2 42.1-21.7 97.1-51.6 130.4 26.2 39.5 57.1 126.4 59.5 141.2 13.7 7.5 99.7 1.3 128.6 55.7 11.1 21 10.5 18.2 13.4 45 3 27.3-0.5 69.9 1.2 83.9 5.6 25.7-0.7 99.9-3.8 114.7-4.6 19.2-11.3 36.2-29.9 48.7-8 8.1-24.6 19-44.9 23-13.6 4.5-63.7 13.5-63.7 13.5l-22.1 65.7c0 0-7.9 19.3-17 37.5-8.3 16.6-17.9 32-18.3 36-0.7 8.3 50.5 69.4 49.7 93.6-1.3 52-5 55.6-28.5 84.5-5.9 10.2-40 41.4-60.9 62.1-25.1 24.9-51.2 54.5-74.7 69.8-20.1 13-39.2 13.6-45.6 14.1-59.5-2.5-71.2-23-116-51-27.1 18.1-73.3 34.4-73.3 34.4 0 0-50.1 16.5-70.7 25.6-4.2 11.6-14.8 75.5-33.3 100.2-16.1 18.5-20.2 24.6-55.3 36.2-7.6 2.1-20 2.7-42.6 2.9-20.2 0.1-47.4 1.8-64.8 0.8-25.1-0.1-69.7 1.3-91.2 0.9-18.5-0.9-38.8-15-38.8-15 0 0-26.4-13.1-42.6-43.7-9.2-21.6-14.7-57-20.4-81.3-35.7-12.3-132.5-51.7-147.5-61.3-34 22-67 48.5-96.1 52.3-63.5 3-95.6-39.4-138.8-84.4-40.2-39.5-79.3-68.6-87.7-110.3-12.2-59.7 24.7-85.6 50.5-131.3-20.7-24.3-43.9-93.7-58.4-134-29.4-16.5-86.5-8-120-51-16.2-20.8-27.9-10.3-24.6-142.3-1.1-25.8-4.4-72.5 1.5-105.7 5.2-29.3 26.5-49.7 34.2-57.5 31.2-31.4 99.5-24.4 107.1-36.3 3.1-4.9 7-18.6 11.9-33.4 7.2-21.5 18.7-49.8 18.7-49.8l28.1-56.3c-6.2-13.6-49.6-62.3-50.6-101.7z"/><path fill-rule="evenodd" class="b" d="m681.6 498c16.9 0 97.4-43.9 97.4-43.9 0 0 102.7-34.5 107.6-40.5 4.8-5.9 21.9-75.6 21.9-75.6l7.2-30.7 12-17.1 90-1.2 103.5 0.8 14 26.7 5.6 25.1c0 0 14.5 67.8 20.8 74.1 6.3 6.3 103.7 33.8 103.7 33.8l50.6 27.8c0 0 42.6 22 51.3 22.1 8.4 0.2 91-66.2 109.5-64.2 20.3 1.9 138.3 117.6 138.9 139.8 0.7 22.2-62.6 102-61 112 0.7 4.3 27.3 46.3 45.4 87.8 24 55.4 41.1 113.4 41.1 113.4 0 0 99.6 15 117.5 32.8 18 17.8 13.2 186.5 1 200-12.1 13.5-117 37-117 37 0 0-22.7 58.9-46.2 110-18 39.3-38.2 71.8-38.8 82-1.3 23.4 64.1 93.8 62 113-2.1 19.2-70.3 80.4-70.3 80.4 0 0-60.7 66.3-75.8 66.3-15 0-75.8-58.1-107.9-63.7-13.7-2.4-54.5 25.6-95.3 43.6-54.4 24-109.7 40.4-109.7 40.4 0 0-24.6 108.4-34.7 119.8-10.1 11.3-188.3 10.1-202.3 3.1-13.9-6.9-36-122.9-36-122.9l-106.2-37c0 0-74.9-47.1-98.8-46-23.8 1.1-30.9 13-57.9 29-22.6 13.3-40.9 30.2-51.1 30-22.2-0.3-138.7-123.4-144-139-5.3-15.6 59.8-86.6 62-107 1.2-10.3-25.6-55.2-47.1-103.2-21.1-47.3-31.6-97.4-41.7-105-10.1-7.5-104.2-17.5-117.2-31.8-13-14.3-6.4-186-1.6-198.9 10.1-12 117.6-29.7 117.6-29.7l44.2-116.3c0 0 45.4-76.2 45.4-91.2 0-14.9-63.9-92.2-61.1-109.1 2.7-17 128-138.6 140.5-138.8 12.6-0.2 94.1 62 111 62zm844.8 525.2c0-278-224.7-502.7-502.7-502.7-278 0-502.7 224.7-502.7 502.7 0 278 224.7 502.7 502.7 502.7 278 0 502.7-224.7 502.7-502.7z"/><path fill-rule="evenodd" class="b" d="m1368.4 797.5l-344.4 198.5-348.3-195.8 343.6-201.2zm31.6 65.5l-3 380-337 194-0.6-378zm-410 193l-0.8 380.2-340.1-192v-382z"/></svg>
